<svg xmlns="http://www.w3.org/2000/svg" width="1200" height="330" viewBox="0 0 1200 330" role="img" aria-labelledby="title desc">
<title id="title">SKYJJGW · 星夜作品馆</title><desc id="desc">深蓝与金色的星夜主题作品集横幅：把代码写进日常，把好奇留给星夜。</desc>
<defs><linearGradient id="night" x2="1" y2="1"><stop stop-color="#101e34"/><stop offset="1" stop-color="#213d5c"/></linearGradient><radialGradient id="glow"><stop stop-color="#d8bc75" stop-opacity=".23"/><stop offset="1" stop-color="#d8bc75" stop-opacity="0"/></radialGradient></defs>
<rect width="1200" height="330" rx="18" fill="url(#night)"/><circle cx="997" cy="135" r="235" fill="url(#glow)"/>
<g fill="none" stroke="#b5c8d8" stroke-opacity=".13"><path d="M790 270Q1090 350 1160 102Q1220-72 960-10"/><path d="M760 300Q1110 390 1190 122"/><ellipse cx="980" cy="157" rx="159" ry="83" transform="rotate(-23 980 157)"/><ellipse cx="980" cy="157" rx="177" ry="105" transform="rotate(-23 980 157)"/></g>
<g fill="#dfc17b"><path d="m1010 61 9 33 33 9-33 9-9 33-9-33-33-9 33-9z"/><path d="m913 189 5 17 17 5-17 5-5 17-5-17-17-5 17-5z"/><circle cx="1090" cy="210" r="4"/><circle cx="856" cy="84" r="3"/><circle cx="1127" cy="59" r="2"/><circle cx="817" cy="229" r="2"/><circle cx="1048" cy="271" r="2"/></g>
<g font-family="Segoe UI,Microsoft YaHei,sans-serif"><text x="56" y="56" fill="#ddc07c" font-size="13" letter-spacing="3">SKYJJGW / A PERSONAL COLLECTION</text><text x="53" y="133" fill="#f6f0df" font-size="42" font-weight="600">把代码写进日常，</text><text x="53" y="196" fill="#e7cb83" font-size="42" font-weight="600">把好奇留给星夜。</text><text x="56" y="245" fill="#b4c6d4" font-size="15">后端 · AI 应用 · 日常工具 · 持续学习</text><path d="M56 280h684" stroke="#dbc482" stroke-opacity=".25"/><text x="56" y="306" fill="#9eafb9" font-size="10" letter-spacing="2">LEARNING IN PUBLIC. BUILDING ONE USEFUL THING AT A TIME.</text><text x="1006" y="306" fill="#c8b778" font-size="10" letter-spacing="2">PIECES LAB</text></g>
</svg>
